<?xml version="1.0" encoding="utf-8"?>
<!-- Generator: Adobe Illustrator 24.2.3, SVG Export Plug-In . SVG Version: 6.00 Build 0)  -->
<svg version="1.1" id="レイヤー_1" xmlns="http://www.w3.org/2000/svg" xmlns:xlink="http://www.w3.org/1999/xlink" x="0px"
	 y="0px" viewBox="0 0 48 47.9" style="enable-background:new 0 0 48 47.9;" xml:space="preserve">
<g>
	<g>
		<path d="M2.5,32.4c-0.7,0-1.4-0.4-1.7-1c-0.5-0.9-0.2-2.1,0.8-2.7l4.3-2.4c2.6-1.4,6.1-1.4,8.7,0l0.7,0.4c1.4,0.8,3.6,0.8,4.9,0
			l0.6-0.3c2.6-1.4,6.1-1.4,8.7,0c1.4,0.8,3.6,0.8,4.9,0l0.1-0.1c2.6-1.4,6.1-1.4,8.7,0l3.3,1.8c0.9,0.5,1.3,1.7,0.8,2.7
			c-0.5,0.9-1.7,1.3-2.7,0.8l-3.3-1.8c-1.4-0.8-3.6-0.8-4.9,0l-0.1,0.1c-2.6,1.4-6.1,1.4-8.7,0c-1.4-0.8-3.6-0.8-4.9,0L22,30.2
			c-2.6,1.4-6.1,1.4-8.7,0l-0.7-0.4C11.2,29,9,29,7.7,29.8l-4.3,2.4C3.1,32.3,2.8,32.4,2.5,32.4z"/>
	</g>
	<g>
		<path d="M45.5,21.9L45.5,21.9h-43c-1.1,0-2-0.9-2-2c0-11,8.8-19.4,20.4-19.4H27c11.5,0,20.3,8.2,20.4,19.2c0,0.1,0,0.2,0,0.3
			C47.5,21,46.6,21.9,45.5,21.9z M4.5,18h38.9c-1-7.9-7.7-13.6-16.4-13.6h-6.1C12.2,4.4,5.5,10.1,4.5,18z"/>
	</g>
	<g>
		<path d="M35.8,47.5H12.2C5.4,47.5,0.5,43,0.5,36.8c0-1.1,0.9-2,2-2h43.1c1.1,0,2,0.9,2,2C47.5,43,42.6,47.5,35.8,47.5z M4.7,38.8
			c1,3.3,4.3,4.8,7.5,4.8h23.6c3.2,0,6.5-1.5,7.5-4.8H4.7z"/>
	</g>
</g>
</svg>
