<?xml version="1.0" encoding="utf-8"?>
<!-- Generator: Adobe Illustrator 24.2.3, SVG Export Plug-In . SVG Version: 6.00 Build 0)  -->
<svg version="1.1" id="レイヤー_1" xmlns="http://www.w3.org/2000/svg" xmlns:xlink="http://www.w3.org/1999/xlink" x="0px"
	 y="0px" viewBox="0 0 204 295" style="enable-background:new 0 0 204 295;" xml:space="preserve">
<style type="text/css">
	.st0{fill-rule:evenodd;clip-rule:evenodd;}
</style>
<g>
	<path d="M25,91c0,7-5,12-12,12S0,98,0,91C0,36,51,0,102,0s102,36,102,91c0,47-40,81-84,89v47c0,7-6,13-12,13c-7,0-13-6-13-13v-58
		c-1-7,5-13,12-13c35-2,71-27,71-65c0-41-39-66-76-66S25,50,25,91z"/>
	<path class="st0" d="M107,257c11,0,19,9,19,19s-8,19-19,19c-10,0-18-9-18-19S97,257,107,257z"/>
</g>
</svg>
